<?xml version="1.0" encoding="UTF-8"?>
<svg version="1.1" viewBox="0 0 1667 938" width="1667" height="938" xmlns="http://www.w3.org/2000/svg">
<path transform="translate(615,369)" d="m0 0h2v112l-4 3-17 8-12 6 5 4 28 15v76l-164 82-4 1-14-8-17-8-19-10-80-40-19-10-17-8v-33l1-4 7 2 17 9 16 8 17 8 17 9 90 45 7-1 16-8 54-26 58-28-1-37-6-2-30-15-6 1-15 8-14 7h-2v-36l8-5 28-15 22-12 13-7h2l-1-35-15 8-17 8-15 8-23 11-14 7h-2l-1 82-1 51-19 9-12 6h-3l-1-93v-75l70-35 25-12z" fill="#CD4C4C"/>
<path transform="translate(286,312)" d="m0 0 1 2 6 2 98 49 19 9 40 20 5-2 17-8 42-21 23-11 40-20 23-11 15-8 2-1 2 25v11l-19 10-46 23-15 8-86 43-3 1-46-23-15-8-70-35v23l1 12 21 10 16 8 23 11 12 6v44l-16-8-20-11-5 1-28 16-3 2v32l60 30 23 11 5 3v-128l6 2 28 14 1 1v168l-19-9-138-69-1-1-2-74 19-10 18-9-3-2-21-10-11-6v-111z" fill="#2D5E5B"/>
<path transform="translate(626,448)" d="m0 0h63l15 2 10 4 8 7 4 7 1 4v16l-5 10-8 7-4 3 9 5 8 9 3 8v15l-4 10-8 8-8 4-12 3h-72zm35 28v21h23l5-3 2-2 1-8-3-6-4-2zm0 45v22h24l7-3 2-3v-10l-5-5-2-1z" fill="#CD4C4C"/>
<path transform="translate(1123,448)" d="m0 0h53l16 2 15 5 11 7 9 9 6 10 4 10 2 13v10l-3 16-7 14-9 10-9 7-11 5-11 3-6 1h-60zm35 30v62h17l12-3 8-6 5-6 3-9v-14l-4-11-8-8-9-4-5-1z" fill="#CD4C4C"/>
<path transform="translate(1010,448)" d="m0 0h58l15 2 12 5 10 9 5 9 2 6v17l-5 12-9 9-10 5-3 2 13 21 14 23v2h-38l-6-9-15-27-5-8-3-1v45h-35zm35 29v25h24l6-4 2-5-1-9-4-5-5-2z" fill="#CD4C4C"/>
<path transform="translate(916,449)" d="m0 0h41l22 58 21 55 2 5v3h-37l-6-17v-3h-46l-2 9-4 11h-37l3-10 19-50 20-52zm20 37-5 12-8 23v3h26l-2-9-10-29z" fill="#CD4C4C"/>
<path transform="translate(791,447)" d="m0 0h23l15 4 8 4-2 4-3 4-1 3-5 4-8 11-9-2h-13l-9 3-6 5-5 10-1 4v16l4 10 7 8 7 3 5 1h9l10-3 8-7 4-9 1-4 1-15 6-7h7l8-8 8-6 4 8 3 15v12l-3 15-7 14-11 12-10 7-11 5-12 3h-21l-15-4-12-6-10-9-7-8-7-14-3-13v-16l4-16 7-13 8-9 13-9 12-5z" fill="#CD4C4C"/>
<path transform="translate(629,315)" d="m0 0h55l12 3 8 5 7 8 2 5 1 13-3 10-6 8-8 5-3 1 12 7 7 8 3 7 1 9-2 11-5 9-7 6-12 5-6 1h-56zm16 13v40h34l11-4 5-6 2-5v-10l-4-8-5-4-9-3zm0 52v43h34l10-3 6-4 4-7 1-11-3-8-5-5-7-4-4-1z" fill="#2D5E5B"/>
<path transform="translate(920,314)" d="m0 0h21l13 3 12 6 10 9 7 9 4 10v2h-17l-7-11-9-7-9-4-13-2-16 2-14 7-8 9-5 10-2 8v22l4 12 6 9 1 3 4 2 10 6 10 3h19l12-4 10-7 7-9 4-10 2-9h-49v-12h63v18l-4 14-6 11-7 8-13 9-14 5-5 1h-21l-13-3-12-6-10-8-9-12-5-12-2-10v-21l3-13 6-12 9-11 13-9 14-5z" fill="#2D5F5C"/>
<path transform="translate(733,315)" d="m0 0h51l12 3 8 4 8 8 4 9 1 4v16l-4 11-8 9-10 5-10 3 16 23 15 22 2 4h-19l-29-44-3-4-18-1v49h-16zm16 14v46h33l9-3 5-4 4-8 1-11-2-8-4-6-6-4-6-2z" fill="#2D5E5B"/>
<path transform="translate(1008,315)" d="m0 0h16v52h64v-52h17v121h-17v-56h-64v56h-16z" fill="#2C5E5B"/>
<path transform="translate(626,585)" d="m0 0h430v7h-430z" fill="#CD4C4C"/>
<path transform="translate(1117,315)" d="m0 0h87v13h-35v108h-17v-108h-35z" fill="#2C5E5B"/>
<path transform="translate(834,315)" d="m0 0h16v121h-16z" fill="#2C5E5B"/>
<path transform="translate(859,440)" d="m0 0 6 1 6 7 1 4-4 4 1 7-20 20-8 6 1-5 11-9 6-7 1-4-8 7-5 4-7-6-4-4 14-15 7-8z" fill="#336360"/>
<path transform="translate(832,471)" d="m0 0 5 2 6 5-1 4-12 12-7 8h-2l-5 9-1 5-7 3-7 5 4-16 9-7 3-5-2-1 9-14z" fill="#376664"/>
<path transform="translate(852,476)" d="m0 0 3 1-13 12-1-3 4-5z" fill="#6E908E"/>
</svg>
